<svg width="25" height="25" viewBox="0 0 25 25" fill="none" xmlns="http://www.w3.org/2000/svg">
<path d="M21.0806 5.73199C21.3918 5.49773 21.3277 5.30603 20.9382 5.30603H4.01796C3.62845 5.30603 3.56427 5.49785 3.87531 5.73229L11.9073 11.7861C12.2183 12.0206 12.7274 12.0207 13.0386 11.7864L21.0806 5.73199Z" fill="white"/>
<path d="M16.5676 11.0058C16.2564 11.2401 16.2392 11.6444 16.5294 11.9043L21.6868 16.5238C21.9769 16.7837 21.945 16.826 21.6158 16.6178L15.42 12.699C15.0908 12.4908 14.5669 12.5121 14.2557 12.7464L13.038 13.6631C12.7268 13.8974 12.2178 13.8972 11.9067 13.6628L10.6772 12.736C10.3661 12.5016 9.84237 12.4803 9.51329 12.6886L3.30873 16.6175C2.97965 16.8259 2.94845 16.7845 3.23942 16.5255L8.42626 11.9091C8.71721 11.6501 8.70077 11.2465 8.38973 11.012L2.09545 6.26785C1.78441 6.03341 1.52991 6.16028 1.52991 6.54979V20.2872C1.52991 20.6767 1.84859 20.9954 2.2381 20.9954H22.7069C23.0964 20.9954 23.4151 20.6767 23.4151 20.2872V6.55886C23.4151 6.16935 23.1605 6.04233 22.8493 6.2766L16.5676 11.0058Z" fill="white"/>
</svg>
