<?xml version="1.0" encoding="UTF-8"?>
<!DOCTYPE svg  PUBLIC '-//W3C//DTD SVG 1.1//EN'  'http://www.w3.org/Graphics/SVG/1.1/DTD/svg11.dtd' [
	<!ENTITY ns_extend "http://ns.adobe.com/Extensibility/1.0/">
	<!ENTITY ns_ai "http://ns.adobe.com/AdobeIllustrator/10.0/">
	<!ENTITY ns_graphs "http://ns.adobe.com/Graphs/1.0/">
	<!ENTITY ns_vars "http://ns.adobe.com/Variables/1.0/">
	<!ENTITY ns_imrep "http://ns.adobe.com/ImageReplacement/1.0/">
	<!ENTITY ns_sfw "http://ns.adobe.com/SaveForWeb/1.0/">
	<!ENTITY ns_custom "http://ns.adobe.com/GenericCustomNamespace/1.0/">
	<!ENTITY ns_adobe_xpath "http://ns.adobe.com/XPath/1.0/">
]>
<svg enable-background="new 0 0 170 60" version="1.1" viewBox="0 0 170 60" xml:space="preserve" xmlns="http://www.w3.org/2000/svg">
<style type="text/css">
	.st0{fill:#003366;}
</style>


	<path class="st0" d="m3.6 16.5-1.8 10h-1.9l3.1-15.8 5.2 11.9 5.2-11.9 3.1 15.7h-1.9l-1.8-10-4.6 10.4-4.6-10.3z"/>
	<path class="st0" d="m24.8 14.2c-0.6-0.9-1.3-1.4-2.4-1.4-1.2 0-2.5 0.8-2.5 2.1 0 1.2 1.2 1.8 2.1 2.2l1.1 0.4c2.1 0.8 3.7 2 3.7 4.5 0 2.7-2.1 4.7-4.8 4.7-2.4 0-4.3-1.8-4.7-4.2l1.9-0.4c0 1.7 1.3 2.9 2.9 2.9s2.8-1.4 2.8-2.9c0-1.6-1.3-2.3-2.6-2.9l-1-0.4c-1.8-0.8-3.3-1.7-3.3-3.8 0-2.4 2.2-3.9 4.4-3.9 1.7 0 3.1 0.8 3.9 2.3l-1.5 0.8z"/>
	<path class="st0" d="m35.5 19.8c-0.7-0.8-1.6-1.3-2.7-1.3-1.8 0-3.1 1.6-3.1 3.3 0 1.9 1.3 3.3 3.2 3.3 1 0 1.9-0.5 2.6-1.2v2.3c-0.8 0.4-1.6 0.6-2.6 0.6-2.8 0-5-2.1-5-4.9 0-2.9 2.2-5 5.1-5 0.8 0 1.8 0.2 2.5 0.6v2.3z"/>
	<path class="st0" d="M45.3,26.5h-1.9V11.4h1.9V26.5z"/>
	<path class="st0" d="M47.9,10.7l11.3,11.9V11.4h1.9v15.7L49.8,15.2v11.2h-1.9V10.7z"/>
	<path class="st0" d="m71.4 13.1v4.2h5.2v1.7h-5.2v7.4h-1.9v-15h7.3v1.7h-5.4z"/>
	<path class="st0" d="M80.9,26.5H79V11.4h1.9V26.5z"/>
	<path class="st0" d="M83.5,10.7l11.3,11.9V11.4h1.9v15.7L85.4,15.2v11.2h-1.9V10.7z"/>
	<path class="st0" d="m101.5 22.7-1.7 3.8h-2l7.2-15.7 7.2 15.7h-2l-1.7-3.8h-7zm3.5-7.8-2.7 6.1h5.4l-2.7-6.1z"/>
	<path class="st0" d="M113.3,10.7l11.3,11.9V11.4h1.9v15.7l-11.3-11.9v11.2h-1.9V10.7z"/>
	<path class="st0" d="m140.1 14.3c-1.1-1-2.6-1.5-4-1.5-3.4 0-6 2.8-6 6.2 0 3.3 2.6 6.1 5.9 6.1 1.5 0 2.9-0.6 4-1.6v2.2c-1.2 0.7-2.6 1.1-4 1.1-4.3 0-7.9-3.4-7.9-7.8 0-4.5 3.6-7.9 8-7.9 1.3 0 2.7 0.3 3.8 1v2.2z"/>
	<path class="st0" d="M144.2,26.5h-1.9V11.4h1.9V26.5z"/>
	<path class="st0" d="m149.1 22.7-1.7 3.8h-2l7.2-15.7 7.2 15.7h-2l-1.7-3.8h-7zm3.5-7.8-2.7 6.1h5.4l-2.7-6.1z"/>
	<path class="st0" d="M162.9,24.8h4.6v1.7h-6.5V11.4h1.9V24.8z"/>
	<path class="st0" d="m3.6 40.5-1.8 10h-1.9l3.1-15.8 5.2 11.9 5.2-11.9 3.1 15.7h-1.9l-1.8-10-4.6 10.4-4.6-10.3z"/>
	<path class="st0" d="m20.2 46.7-1.7 3.8h-2l7.2-15.7 7.2 15.7h-2l-1.7-3.8h-7zm3.5-7.8-2.7 6.1h5.4l-2.7-6.1z"/>
	<path class="st0" d="M34.6,50.5h-1.9V37.1h-3.6v-1.7h9v1.7h-3.6V50.5z"/>
	<path class="st0" d="m48.6 41.5v-6.1h1.9v15.1h-1.9v-7.2h-7.2v7.2h-1.9v-15.1h1.9v6.1h7.2z"/>
	<path class="st0" d="m53.2 35.4h8.1v1.7h-6.2v4.2h6v1.7h-6v5.7h6.2v1.7h-8.1v-15z"/>
	<path class="st0" d="m66.2 40.5-1.8 10h-1.9l3.1-15.7 5.2 11.9 5.2-11.9 3.1 15.7h-2.1l-1.8-10-4.5 10.3-4.5-10.3z"/>
	<path class="st0" d="m82.8 46.7-1.8 3.8h-2l7.2-15.7 7.2 15.7h-2l-1.7-3.8h-6.9zm3.4-7.8-2.7 6.1h5.4l-2.7-6.1z"/>
	<path class="st0" d="M97.1,50.5h-1.9V37.1h-3.6v-1.7h9v1.7h-3.6V50.5z"/>
	<path class="st0" d="M104,50.5h-1.9V35.4h1.9V50.5z"/>
	<path class="st0" d="m117.8 38.3c-1.1-1-2.6-1.5-4-1.5-3.4 0-6 2.8-6 6.2 0 3.3 2.6 6.1 5.9 6.1 1.5 0 2.9-0.6 4-1.6v2.2c-1.2 0.7-2.6 1.1-4 1.1-4.3 0-7.9-3.4-7.9-7.8 0-4.5 3.6-7.9 8-7.9 1.3 0 2.7 0.3 3.8 1v2.2z"/>
	<path class="st0" d="m126.8 38.2c-0.6-0.9-1.3-1.4-2.4-1.4-1.2 0-2.5 0.8-2.5 2.1 0 1.2 1.2 1.8 2.1 2.2l1.1 0.4c2.1 0.8 3.7 2 3.7 4.5 0 2.7-2.1 4.7-4.8 4.7-2.4 0-4.3-1.8-4.7-4.2l1.9-0.4c0 1.7 1.3 2.9 2.9 2.9s2.8-1.4 2.8-2.9c0-1.6-1.3-2.3-2.6-2.9l-1-0.4c-1.7-0.7-3.3-1.7-3.3-3.8 0-2.4 2.2-3.9 4.4-3.9 1.7 0 3.1 0.8 3.9 2.3l-1.5 0.8z"/>

</svg>
