<?xml version="1.0" encoding="UTF-8"?>
<!DOCTYPE svg  PUBLIC '-//W3C//DTD SVG 1.0//EN'  'http://www.w3.org/TR/2001/REC-SVG-20010904/DTD/svg10.dtd'>
<svg enable-background="new 0 0 237 59" version="1.0" viewBox="0 0 237 59" xml:space="preserve" xmlns="http://www.w3.org/2000/svg" xmlns:xlink="http://www.w3.org/1999/xlink">

<g transform="translate(0 -281.39)">
	<g transform="matrix(.30487 0 0 -.31411 13.08 285.46)">
		<path d="m119.26-36.034h-5.333v37.879h-10.153v4.88h25.634v-4.88h-10.148v-37.879z" fill="#036"/>
	</g>
	<g transform="matrix(.30487 0 0 -.31411 16.318 283.34)">
		<path d="m148.78-17.267v17.241h5.332v-42.758h-5.332v20.527h-20.356v-20.527h-5.325v42.758h5.325v-17.241h20.356z" fill="#036"/>
	</g>
	<g transform="matrix(.30487 0 0 -.31411 17.417 281.91)">
		<path d="m158.79-4.589h22.964v-4.88h-17.639v-11.961h17.129v-4.88h-17.129v-16.157h17.639v-4.88h-22.964v42.758z" fill="#036"/>
	</g>
	<g transform="matrix(.30487 0 0 -.31411 23.249 283.34)">
		<path d="m211.96-17.267v17.241h5.325v-42.758h-5.325v20.527h-20.356v-20.527h-5.333v42.758h5.333v-17.241h20.356z" fill="#036"/>
	</g>
	<g transform="matrix(.30487 0 0 -.31411 -59.493 421.36)">
		
			
				<defs>
					<polygon id="b" points="195.14 257.78 972.53 257.78 971.99 446.16 195.14 445.61"/>
				</defs>
				<clipPath id="a">
					<use overflow="visible" xlink:href="#b"/>
				</clipPath>
				<g clip-path="url(#a)">
					<g transform="translate(284.38 438.04)">
						<path d="m248.04-21.054c0 9.411-7.029 17.295-17.068 17.295s-17.067-7.884-17.067-17.295c0-9.754 7.824-17.295 17.067-17.295 9.241 0 17.068 7.541 17.068 17.295m5.333 0c0-12.706-10.039-22.288-22.402-22.288s-22.402 9.582-22.402 22.288c0 12.246 10.148 22.284 22.402 22.284 12.247 0 22.402-10.037 22.402-22.284" fill="#036"/>
					</g>
					<g transform="translate(287.17 444.23)">
						<path d="m255.8-3.831 32.096-33.627v31.581h5.329v-44.516l-32.09 33.627v-31.869h-5.333v44.803h-2e-3z" fill="#036"/>
					</g>
					<g transform="translate(309.54 438.08)">
						<path d="m317.98-20.931v-1.702c0-11.735-8.284-20.752-20.241-20.752-11.97 0-21.612 10.319-21.612 22.169 0 12.31 9.872 22.403 22.166 22.403 6.643 0 13.223-3.006 17.413-8.282l-3.741-3.571c-3.062 4.196-8.226 6.977-13.441 6.977-9.578 0-17.06-7.771-17.06-17.353 0-8.965 7.374-17.468 16.606-17.468 6.643 0 13.774 5.73 14.004 12.699h-11.057v4.881h16.963z" fill="#036"/>
					</g>
					<g transform="translate(321.78 443.69)">
						<path d="m352-5.334h6.977l-19.223-19.223 19.568-23.535h-7.201l-16.109 19.904-2.149-2.041v-17.863h-5.337v42.758h5.337v-18.542l18.137 18.542z" fill="#036"/>
					</g>
					<g transform="translate(334.38 438.04)">
						<path d="m387-21.054c0 9.411-7.044 17.295-17.08 17.295-10.029 0-17.07-7.884-17.07-17.295 0-9.754 7.826-17.295 17.07-17.295 9.239 0 17.08 7.541 17.08 17.295m5.311 0c0-12.706-10.029-22.288-22.391-22.288-12.352 0-22.397 9.582-22.397 22.288 0 12.246 10.154 22.284 22.397 22.284 12.25 0 22.391-10.037 22.391-22.284" fill="#036"/>
					</g>
					<g transform="translate(337.16 444.23)">
						<path d="m394.75-3.831 32.09-33.627v31.581h5.337v-44.516l-32.103 33.627v-31.869h-5.324v44.804z" fill="#036"/>
					</g>
					<g transform="translate(359.54 438.08)">
						<path d="m456.93-20.931v-1.702c0-11.735-8.277-20.752-20.238-20.752-11.98 0-21.615 10.319-21.615 22.169 0 12.31 9.866 22.403 22.166 22.403 6.643 0 13.223-3.006 17.419-8.282l-3.741-3.571c-3.069 4.196-8.232 6.977-13.441 6.977-9.584 0-17.067-7.771-17.067-17.353 0-8.965 7.374-17.468 16.606-17.468 6.637 0 13.78 5.73 14.011 12.699h-11.057v4.881h16.957z" fill="#036"/>
					</g>
					<g transform="translate(235.95 425.69)">
						<path d="m113.42-55.366v-25.229c0-6.977 2.098-13.443 10.319-13.443 8.224 0 10.321 6.467 10.321 13.443v25.229h5.333v-27.045c0-9.411-5.843-16.621-15.654-16.621-9.808 0-15.651 7.21-15.651 16.621v27.045h5.332z" fill="#036"/>
					</g>
					<g transform="translate(244.79 426.23)">
						<path d="m137.98-53.862 32.096-33.628v31.581h5.329v-44.514l-32.09 33.627v-31.867h-5.333v44.802h-2e-3z" fill="#036"/>
					</g>
					<path d="m433.52 327.57h-5.333v42.758h5.333v-42.758z" fill="#036"/>
					<g transform="translate(264.22 417.32)">
						<path d="m191.99-78.634 12.699 31.643h5.843l-18.542-45.03-18.603 45.03h5.843l12.76-31.643z" fill="#036"/>
					</g>
					<g transform="translate(270.23 425.69)">
						<path d="m208.71-55.366h22.964v-4.878h-17.631v-11.963h17.121v-4.878h-17.121v-16.154h17.631v-4.884h-22.964v42.757z" fill="#036"/>
					</g>
					<g transform="translate(279.61 420.34)">
						<path d="m234.78-70.254h1.701c5.444 0 11.343 1.024 11.343 7.827 0 6.691-6.354 7.657-11.626 7.657h-1.416v-15.484h-2e-3zm21.265-22.512h-6.463l-12.593 18.082h-2.209v-18.082h-5.332v42.759h6.466c3.799 0 7.882-0.058 11.287-1.988 3.568-2.094 5.612-6.123 5.612-10.205 0-6.123-4.086-11.222-10.265-11.962l13.497-18.604z" fill="#036"/>
					</g>
					<g transform="translate(291.52 423.55)">
						<path d="m267.89-61.329c-1.584 2.668-3.624 4.029-6.86 4.029-3.405 0-7.148-2.327-7.148-6.067 0-3.348 3.296-5.105 5.958-6.129l3.061-1.191c6.07-2.378 10.601-5.722 10.601-12.879 0-7.76-6.004-13.319-13.662-13.319-6.921 0-12.307 5.105-13.213 11.97l5.385 1.132c-0.056-4.71 3.685-8.108 8.282-8.108 4.595 0 7.883 3.855 7.883 8.326 0 4.607-3.685 6.579-7.374 8.121l-2.952 1.244c-4.872 2.099-9.294 4.88-9.294 10.836 0 6.917 6.123 11.056 12.59 11.056 4.762 0 8.674-2.324 10.998-6.467l-4.255-2.554z" fill="#036"/>
					</g>
					<path d="m576.59 327.57h-5.333v42.758h5.333v-42.758z" fill="#036"/>
					<g transform="translate(301.38 414.38)">
						<path d="m295.29-86.81h-5.337v37.88h-10.148v4.878h25.629v-4.878h-10.144v-37.88z" fill="#036"/>
					</g>
					<g transform="translate(304.16 425.69)">
						<path d="m303-55.366h6.125l10.494-18.257 10.494 18.257h6.118l-13.947-24.154v-18.604h-5.33v18.604l-13.954 24.154z" fill="#036"/>
					</g>
					<g transform="translate(328.21 420.04)">
						<path d="m369.85-71.084c0 9.411-7.021 17.294-17.067 17.294-10.042 0-17.06-7.883-17.06-17.294 0-9.756 7.816-17.295 17.06-17.295 9.251 0 17.067 7.539 17.067 17.295m5.336 0c0-12.709-10.032-22.288-22.403-22.288-12.364 0-22.397 9.579-22.397 22.288 0 12.245 10.151 22.284 22.397 22.284 12.262-1e-3 22.403-10.039 22.403-22.284" fill="#036"/>
					</g>
					<g transform="translate(332.53 424.4)">
						<path d="m381.87-58.952v-12.019h14.85v-4.88h-14.85v-20.979h-5.337v42.758h20.702v-4.88h-15.365z" fill="#036"/>
					</g>
					<g transform="translate(347.9 423.55)">
						<path d="m424.6-61.329c-1.573 2.668-3.623 4.029-6.852 4.029-3.402 0-7.143-2.327-7.143-6.067 0-3.348 3.286-5.105 5.955-6.129l3.059-1.191c6.067-2.378 10.603-5.722 10.603-12.879 0-7.76-6.009-13.319-13.662-13.319-6.932 0-12.31 5.105-13.22 11.97l5.394 1.132c-0.058-4.71 3.684-8.108 8.267-8.108 4.609 0 7.883 3.855 7.883 8.326 0 4.607-3.671 6.579-7.374 8.121l-2.941 1.244c-4.875 2.099-9.302 4.88-9.302 10.836 0 6.917 6.131 11.056 12.601 11.056 4.76 0 8.668-2.324 10.993-6.467l-4.261-2.554z" fill="#036"/>
					</g>
					<g transform="translate(359.32 423.53)">
						<path d="m456.35-61.371c-3.062 2.725-7.265 4.196-11.285 4.196-9.581 0-16.91-7.992-16.91-17.466 0-9.349 7.265-17.348 16.785-17.348 4.209 0 8.229 1.586 11.41 4.421v-6.299c-3.293-1.928-7.486-3.003-11.231-3.003-12.191 0-22.275 9.7-22.275 22.061 0 12.65 10.138 22.515 22.73 22.515 3.741 0 7.54-0.906 10.776-2.896v-6.181z" fill="#036"/>
					</g>
					<path d="m827.75 327.57h-5.327v42.758h5.327v-42.758z" fill="#036"/>
					<g transform="translate(364.79 425.69)">
						<path d="m471.52-55.366h22.964v-4.878h-17.627v-11.963h17.115v-4.878h-17.115v-16.154h17.627v-4.884h-22.964v42.757z" fill="#036"/>
					</g>
					<g transform="translate(372.62 426.23)">
						<path d="m493.3-53.862 32.09-33.628v31.581h5.337v-44.514l-32.103 33.627v-31.867h-5.324v44.801z" fill="#036"/>
					</g>
					<g transform="translate(392.92 423.53)">
						<path d="m549.72-61.371c-3.059 2.725-7.255 4.196-11.272 4.196-9.59 0-16.907-7.992-16.907-17.466 0-9.349 7.252-17.348 16.785-17.348 4.196 0 8.226 1.586 11.394 4.421v-6.299c-3.277-1.928-7.486-3.003-11.227-3.003-12.179 0-22.275 9.7-22.275 22.061 0 12.65 10.135 22.515 22.736 22.515 3.748 0 7.534-0.906 10.769-2.896v-6.181h-3e-3z" fill="#036"/>
					</g>
					<g transform="translate(394.75 425.69)">
						<path d="m554.81-55.366h22.974v-4.878h-17.65v-11.963h17.137v-4.878h-17.137v-16.154h17.65v-4.884h-22.974v42.757z" fill="#036"/>
					</g>
					<g transform="translate(238.93 405.08)">
						<path d="m121.72-112.65-7.596-17.298h15.199l-7.603 17.298zm-9.812-22.179-4.87-10.72h-5.731l20.413 44.57 20.417-44.57h-5.729l-4.875 10.72h-19.625z" fill="#036"/>
					</g>
					<g transform="translate(245.3 408.23)">
						<path d="m139.4-103.89 32.096-33.627v31.578h5.329v-44.511l-32.091 33.627v-31.867h-5.332v44.8h-2e-3z" fill="#036"/>
					</g>
					<g transform="translate(258.65 397.67)">
						<path d="m176.52-133.25h1.871c10.889 0 20.304 4.076 20.304 16.496 0 12.473-9.413 16.502-20.304 16.502h-1.871v-32.998zm-5.332 37.874h8.847c13.1 0 23.989-6.914 23.989-21.15 0-14.575-10.662-21.604-24.159-21.604h-8.678v42.754z" fill="#036"/>
					</g>
					<g transform="translate(275.02 396.38)">
						<path d="m222.01-136.84h-5.325v37.88h-10.153v4.875h25.634v-4.875h-10.156v-37.88z" fill="#036"/>
					</g>
					<g transform="translate(278.96 407.69)">
						<path d="m232.98-105.4h22.964v-4.875h-17.631v-11.957h17.121v-4.884h-17.121v-16.157h17.631v-4.881h-22.964v42.754z" fill="#036"/>
					</g>
					<g transform="translate(295.17 405.53)">
						<path d="m278.02-111.4c-3.062 2.727-7.257 4.197-11.282 4.197-9.587 0-16.9-7.996-16.9-17.472 0-9.346 7.258-17.342 16.783-17.342 4.195 0 8.226 1.586 11.399 4.415v-6.299c-3.288-1.921-7.484-2.997-11.229-2.997-12.19 0-22.285 9.7-22.285 22.067 0 12.647 10.148 22.5 22.738 22.5 3.746 0 7.544-0.908 10.776-2.888v-6.181z" fill="#036"/>
					</g>
					<g transform="translate(303.68 403.13)">
						<path d="m301.67-118.07v17.23h5.314v-42.755h-5.314v20.532h-20.364v-20.532h-5.33v42.755h5.33v-17.23h20.364z" fill="#036"/>
					</g>
					<g transform="translate(307.14 408.23)">
						<path d="m311.3-103.89 32.099-33.627v31.578h5.324v-44.511l-32.087 33.627v-31.867h-5.337v44.8h1e-3z" fill="#036"/>
					</g>
					<g transform="translate(328.85 402.04)">
						<path d="m371.65-121.12c0 9.408-7.034 17.292-17.08 17.292-10.029 0-17.06-7.884-17.06-17.292 0-9.756 7.816-17.298 17.06-17.298 9.252 0 17.08 7.542 17.08 17.298m5.324 0c0-12.713-10.032-22.291-22.403-22.291-12.352 0-22.397 9.582-22.397 22.291 0 12.243 10.154 22.279 22.397 22.279 12.262 0 22.403-10.036 22.403-22.279" fill="#036"/>
					</g>
					<g transform="translate(333.19 397.67)">
						<path d="m383.7-133.25h12.989v-4.881h-18.316v42.755h5.327v-37.874z" fill="#036"/>
					</g>
					<g transform="translate(347.35 402.04)">
						<path d="m423.07-121.12c0 9.408-7.031 17.292-17.067 17.292-10.042 0-17.073-7.884-17.073-17.292 0-9.756 7.829-17.298 17.073-17.298 9.238 0 17.067 7.542 17.067 17.298m5.324 0c0-12.713-10.033-22.291-22.391-22.291-12.355 0-22.397 9.582-22.397 22.291 0 12.243 10.151 22.279 22.397 22.279 12.249 0 22.391-10.036 22.391-22.279" fill="#036"/>
					</g>
					<g transform="translate(360.58 402.08)">
						<path d="m459.85-120.99v-1.694c0-11.739-8.284-20.762-20.238-20.762-11.964 0-21.615 10.322-21.615 22.179 0 12.299 9.872 22.391 22.176 22.391 6.634 0 13.21-3.003 17.416-8.285l-3.741-3.566c-3.062 4.197-8.239 6.98-13.444 6.98-9.587 0-17.07-7.776-17.07-17.351 0-8.96 7.374-17.463 16.605-17.463 6.643 0 13.787 5.724 14.017 12.688h-11.057v4.884h16.951v-1e-3z" fill="#036"/>
					</g>
					<g transform="translate(360.96 407.69)">
						<path d="m460.89-105.4h6.134l10.478-18.25 10.494 18.25h6.137l-13.953-24.157v-18.598h-5.337v18.598l-13.953 24.157z" fill="#036"/>
					</g>
					<g transform="translate(217.81 435.47)">
						<path d="m63.002-28.19c0.884 1.107 1.195 3.076 1.195 3.076h-53.039s0.655-2.192 1.211-3.076h50.633z" fill="#960"/>
					</g>
					<g transform="translate(217 434.28)">
						<path d="m60.738-31.506c0.987 0.874 1.981 2.646 1.981 2.646h-48.552s0.541-1.326 1.762-2.646h44.809z" fill="#960"/>
					</g>
					<g transform="translate(215.98 433.2)">
						<path d="m57.921-34.494c1.206 0.644 2.181 1.979 2.181 1.979h-41.523s0.995-1.096 1.97-1.979h37.372z" fill="#960"/>
					</g>
					<g transform="translate(214.7 432.18)">
						<path d="m54.363-37.328c1.185 0.454 2.524 1.55 2.524 1.55h-32.398s0-0.241 2.302-1.55h27.572z" fill="#960"/>
					</g>
					<g transform="translate(208.39 431.55)">
						<path d="m36.822-39.096s3.41-1.991 10.109-1.991c6.709 0 10.984 1.991 10.984 1.991h-21.093z" fill="#960"/>
					</g>
					<g transform="translate(208.25 430.35)">
						<path d="m36.423-42.411s4.063-0.221 6.48-2.081c2.302-1.993 4.073-5.27 4.073-5.27s1.417 3.168 3.73 4.816c2.318 1.772 6.048 2.535 6.048 2.535h41.855l8.24-12.204h-37.585s-2.635-0.109-6.586-2.422c-2.09-1.188-3.632-3.288-3.632-3.288s-0.311-0.987-0.775-1.531c-0.431-0.552-0.764-0.995-1.304-1.206-0.556-0.23-0.445-0.098-0.445-0.098h-19.555s-0.786 0.309-1.198 0.987c-0.442 0.65-0.12 0.431-0.551 0.959-0.333 0.557-1.108 1.996-4.074 3.965-3.07 1.996-6.049 2.192-6.049 2.192h-38.2l8.328 12.646h41.2z" fill="#036"/>
					</g>
					<g transform="translate(200.43 425.79)">
						<path d="m14.681-55.095v-62.378s0.223-5.512 4.838-12.98c4.617-7.462 11.315-10.872 11.315-10.872l5.271 8.239s-4.608 2.745-8.127 8.018c-3.402 5.267-3.402 9.787-3.402 9.787v60.187h-9.895z" fill="#036"/>
					</g>
					<g transform="translate(219.15 425.85)">
						<path d="m66.716-54.933v-60.183s-0.764-6.05-3.621-10.347c-2.857-4.384-7.596-7.903-7.596-7.903l5.072-8.127s7.683 5.602 11.424 11.537c3.724 5.935 4.63 14.839 4.63 14.839v60.182h-9.909v2e-3z" fill="#036"/>
					</g>
					<g transform="translate(196.27 425.79)">
						<path d="m3.141-55.095v-62.624s0.644-9.675 6.69-19.773c6.056-10.098 17.027-17.143 17.027-17.143l5.175 8.239s-7.034 3.74-12.635 12.312c-5.737 8.683-6.048 16.611-6.048 16.611v62.38h-10.209v-2e-3z" fill="#036"/>
					</g>
					<g transform="translate(208.25 424.05)">
						<path d="m36.423-59.943v-66.131s-0.242-0.224-0.319-1.194c-0.123-1.001-0.775-1.66-0.775-1.66l-22.08-36.586h67.674l-22.088 37.361-0.652 1.657-0.224 1.753v64.682h-8.234v-67.12s0-0.973 0.328-1.747c0.199-0.777 0.652-1.974 0.652-1.974l13.61-22.413h-34.491l13.41 22.304s0.442 0.752 0.774 1.859c0.219 0.998 0.311 1.971 0.311 1.971v67.238h-7.896z" fill="#960"/>
					</g>
					<g transform="translate(223.19 425.85)">
						<path d="m77.944-54.933v-61.514s-0.086-7.909-5.921-17.031c-5.814-9.125-12.526-12.977-12.526-12.977l4.951-8.326s10.09 6.376 16.477 16.478c6.253 10.098 7.028 21.856 7.028 21.856v61.514h-10.009z" fill="#036"/>
					</g>
					<g transform="translate(204 436.75)">
						<path d="m24.623-24.633s-3.386 18.547 10.22 27.802c0 0 6.157 5.693 16.147 5.693 10.662 0 16.807-5.59 16.807-5.59 14.827-10.863 10.443-27.905 10.443-27.905h-53.617z" fill="#960"/>
					</g>
				</g>
			
		
	</g>
</g>
</svg>
