<svg width="23" height="23" viewBox="0 0 23 23" fill="none" xmlns="http://www.w3.org/2000/svg">
<path d="M21.0646 0H1.93538C0.879449 0 0.0224609 0.856988 0.0224609 1.91292V21.0871C0.0224609 22.143 0.879449 23 1.93538 23H21.0646C22.1205 23 22.9775 22.143 22.9775 21.0871V1.91292C22.9775 0.856988 22.1205 0 21.0646 0ZM6.81811 18.9657H3.42172V8.77552H6.81907V18.9657H6.81811ZM5.11944 7.54073C4.0549 7.54073 3.19121 6.67705 3.19121 5.61251C3.19121 4.54701 4.0549 3.68333 5.11944 3.68333C6.18493 3.68333 7.04862 4.54701 7.04862 5.61251C7.04862 6.67705 6.18493 7.54073 5.11944 7.54073ZM19.5897 18.9657H16.1819L16.1025 12.9122C16.1025 12.9122 16.1819 11.2977 14.4287 11.3178C12.6755 11.3379 12.423 12.9122 12.423 12.9122V18.9657H8.99119V10.8989V10.2609V8.77552H12.2814V10.1815C12.2814 10.1815 12.4163 9.72338 13.1738 9.18489C13.9303 8.6464 15.1862 8.52684 15.7247 8.54693C16.2632 8.56701 16.9996 8.47328 18.2354 9.32453C19.5562 10.2332 19.5897 12.6119 19.5897 12.6119V18.9657Z" fill="white"/>
</svg>
