<svg width="23" height="21" viewBox="0 0 23 21" fill="none" xmlns="http://www.w3.org/2000/svg">
<path d="M11.4971 0C5.15813 0 0 4.20885 0 9.38128C0 12.1433 1.45537 14.711 4.01442 16.4952L3.26815 19.6146C3.17951 19.8605 3.24814 20.135 3.44543 20.3066C3.56266 20.4124 3.7142 20.4667 3.8686 20.4667C3.96581 20.4667 4.06303 20.4438 4.15453 20.3981L7.82869 18.2622C9.02673 18.5939 10.2619 18.7597 11.5029 18.7597C17.8419 18.7597 23 14.5508 23 9.37842C22.9943 4.20599 17.839 0 11.4971 0ZM7.38836 9.76156C6.57061 9.76156 5.9044 9.09821 5.9044 8.2776C5.9044 7.45985 6.56775 6.79363 7.38836 6.79363C8.20612 6.79363 8.87233 7.45699 8.87233 8.2776C8.86947 9.09821 8.20612 9.76156 7.38836 9.76156ZM15.9891 9.76156C15.1713 9.76156 14.5051 9.09821 14.5051 8.2776C14.5051 7.45985 15.1684 6.79363 15.9891 6.79363C16.8068 6.79363 17.473 7.45699 17.473 8.2776C17.4702 9.09821 16.8068 9.76156 15.9891 9.76156Z" fill="white"/>
</svg>
